<svg width="898" height="138" viewBox="0 0 898 138" fill="none" xmlns="http://www.w3.org/2000/svg">
<path fill-rule="evenodd" clip-rule="evenodd" d="M262 0H261H110C103.456 0 97.0542 0.921347 90.7947 2.76404C84.3929 4.60673 78.7024 7.37076 73.7232 11.0561C68.6018 14.7415 64.5473 19.49 61.5598 25.3016C58.4301 30.9714 56.8652 37.7043 56.8652 45.5003C56.8652 54.2885 59.2836 61.7301 64.1206 67.8252C68.8152 73.7785 74.9324 78.3144 82.4723 81.4328C89.6389 84.3164 97.3394 85.8033 105.574 85.8934L55 138L4.42589 85.8934C12.6605 85.8033 20.3611 84.3164 27.5276 81.4328C35.0675 78.3144 41.1848 73.7785 45.8794 67.8252C50.7163 61.7302 53.1348 54.2885 53.1348 45.5003C53.1348 37.7043 51.5699 30.9714 48.4401 25.3016C45.4526 19.49 41.3982 14.7415 36.2768 11.0562C31.2976 7.37078 25.6071 4.60674 19.2053 2.76405C12.9458 0.921353 6.54404 6.78564e-06 0 0V138H55L73 138L206 138H262V0ZM73 138C79.544 138 85.9458 137.079 92.2053 135.236C98.6071 133.393 104.298 130.629 109.277 126.944C114.398 123.258 118.453 118.51 121.44 112.698C124.57 107.029 126.135 100.296 126.135 92.4997C126.135 83.7115 123.716 76.2698 118.879 70.1748C114.185 64.2215 108.068 59.6856 100.528 56.5672C93.3611 53.6836 85.6605 52.1967 77.4259 52.1066L122.259 5.91458C125.402 2.67699 130.598 2.67699 133.741 5.91458L178.574 52.1066C170.339 52.1967 162.639 53.6835 155.472 56.5672C147.932 59.6856 141.815 64.2215 137.121 70.1748C132.284 76.2698 129.865 83.7115 129.865 92.4997C129.865 100.296 131.43 107.029 134.56 112.698C137.547 118.51 141.602 123.258 146.723 126.944C151.702 130.629 157.393 133.393 163.795 135.236C170.054 137.079 176.456 138 183 138L73 138ZM206 138L155.426 85.8934C163.661 85.8033 171.361 84.3164 178.528 81.4328C186.068 78.3144 192.185 73.7785 196.879 67.8252C201.716 61.7302 204.135 54.2885 204.135 45.5003C204.135 37.7043 202.57 30.9714 199.44 25.3016C196.453 19.49 192.398 14.7415 187.277 11.0562C182.298 7.37078 176.607 4.60674 170.205 2.76405C163.946 0.921353 157.544 6.78564e-06 151 5.64228e-06L261 0C254.456 0 248.054 0.921347 241.795 2.76404C235.393 4.60673 229.702 7.37076 224.723 11.0561C219.602 14.7415 215.547 19.49 212.56 25.3016C209.43 30.9714 207.865 37.7043 207.865 45.5003C207.865 54.2885 210.284 61.7301 215.121 67.8252C219.815 73.7785 225.932 78.3144 233.472 81.4328C240.639 84.3164 248.339 85.8033 256.574 85.8934L206 138Z" fill="white"/>
<path d="M308 134.978V10.5792C308 4.73648 312.753 0 318.616 0H362.382C368.582 0 374.647 0.872993 380.577 2.61898C386.642 4.36496 392.033 6.98394 396.75 10.4759C401.602 13.9679 405.443 18.4672 408.274 23.9737C411.239 29.346 412.721 35.7255 412.721 43.1124C412.721 51.4394 410.43 58.4905 405.848 64.2657C401.4 69.9066 395.605 74.2044 388.462 77.1591C381.453 79.9796 373.906 81.3898 365.819 81.3898C363.798 81.3898 361.169 81.1883 357.935 80.7854C354.835 80.3825 351.533 79.9124 348.029 79.3752C344.524 78.838 341.222 78.3007 338.123 77.7635C335.157 77.092 332.934 76.5547 331.451 76.1518V59.4307C335.225 60.7737 339.47 61.8482 344.188 62.654C348.905 63.4599 353.622 63.8628 358.339 63.8628C366.965 63.8628 373.704 61.9825 378.556 58.2219C383.542 54.4613 386.036 49.4248 386.036 43.1124C386.036 36.3971 383.407 31.3606 378.151 28.0029C372.895 24.511 366.426 22.765 358.743 22.765H344.696C338.832 22.765 334.079 27.5014 334.079 33.3442V124.399C334.079 130.242 329.326 134.978 323.463 134.978H308ZM388.182 134.978C385.145 134.978 382.254 133.683 380.239 131.419L331.047 76.1518L353.285 67.6905L418.584 134.978H388.182Z" fill="white"/>
<path d="M480.069 136.611C472.595 137.657 465.41 137.375 458.514 135.764C451.732 134.001 445.477 131.148 439.749 127.203C434.136 123.106 429.478 118.063 425.774 112.071C422.205 106.061 419.895 99.3319 418.844 91.8839C417.475 82.1749 418.421 72.9556 421.681 64.2257C424.941 55.4959 430.028 48.1378 436.941 42.1514C443.855 36.165 452.183 32.4895 461.926 31.125C471.936 29.7231 480.777 30.6549 488.451 33.9202C496.125 37.1855 502.356 42.2804 507.143 49.205C511.931 56.1296 515.009 64.4464 516.378 74.1554C517.194 79.9413 513.163 85.388 507.357 86.2012L441.594 95.4113L439.231 78.6533L492.684 71.1672C491.552 66.0363 489.483 61.9859 486.479 59.0161C483.607 56.0276 480.191 53.997 476.229 52.9244C472.4 51.8331 468.484 51.5678 464.48 52.1285C459.008 52.8949 454.467 54.955 450.856 58.3087C447.246 61.6624 444.654 65.9587 443.079 71.1974C441.638 76.4175 441.367 82.2195 442.267 88.6035C443.093 94.4555 445.102 99.5314 448.294 103.831C451.62 108.112 455.806 111.256 460.852 113.262C466.032 115.249 471.692 115.812 477.831 114.952C485.305 113.906 491.763 111.442 497.204 107.56C498.87 106.394 500.434 105.231 501.894 104.069C505.478 101.219 511.479 103.111 512.118 107.637L513.619 118.281C511.898 120.557 509.386 123.011 506.083 125.643C502.761 128.143 498.858 130.385 494.374 132.369C490.043 134.468 485.274 135.882 480.069 136.611Z" fill="white"/>
<path d="M576.522 137.396C567.761 137.396 559.944 135.65 553.07 132.158C546.332 128.666 540.941 123.696 536.897 117.25C532.989 110.669 531.035 102.879 531.035 93.8803V33.4423H544.678C550.541 33.4423 555.294 38.1788 555.294 44.0216V90.254C555.294 98.1781 557.316 104.222 561.359 108.385C565.403 112.415 570.457 114.429 576.522 114.429C582.587 114.429 587.573 112.415 591.482 108.385C595.525 104.222 597.547 98.1781 597.547 90.254V44.0216C597.547 38.1788 602.3 33.4423 608.163 33.4423H622.009V93.8803C622.009 102.879 619.987 110.669 615.944 117.25C612.035 123.696 606.644 128.666 599.771 132.158C592.897 135.65 585.147 137.396 576.522 137.396Z" fill="white"/>
<path d="M683.467 138C677.537 138 672.146 136.724 667.294 134.172C662.576 131.486 658.803 127.793 655.972 123.092C653.277 118.257 651.929 112.616 651.929 106.169V53.5883H639.851C636.919 53.5883 634.543 51.2201 634.543 48.2987V42.3066C641.147 39.7547 646.605 35.3898 650.918 29.2117C655.231 22.8993 659.005 15.0423 662.24 5.64088H675.785V33.4423H707.12V48.2987C707.12 51.2201 704.744 53.5883 701.812 53.5883H675.785V100.528C675.785 105.095 676.998 108.654 679.423 111.206C681.984 113.758 685.488 115.034 689.936 115.034C693.979 115.034 697.484 114.496 700.449 113.422C701.857 112.873 703.182 112.31 704.423 111.733C706.284 110.868 708.535 112.173 708.535 114.218V129.942C706.109 132.359 702.74 134.307 698.427 135.784C694.249 137.261 689.262 138 683.467 138Z" fill="white"/>
<path d="M783.959 136.611C776.485 137.657 769.3 137.375 762.404 135.764C755.622 134.001 749.368 131.148 743.639 127.203C738.026 123.106 733.368 118.063 729.665 112.071C726.095 106.061 723.785 99.3319 722.734 91.8839C721.365 82.1749 722.311 72.9556 725.571 64.2257C728.831 55.4959 733.918 48.1378 740.831 42.1514C747.745 36.165 756.073 32.4895 765.816 31.125C775.826 29.7231 784.668 30.6549 792.341 33.9202C800.015 37.1855 806.246 42.2804 811.033 49.205C815.821 56.1296 818.899 64.4464 820.268 74.1554C821.084 79.9413 817.053 85.388 811.247 86.2012L745.484 95.4113L743.121 78.6533L796.574 71.1672C795.442 66.0363 793.373 61.9859 790.369 59.0161C787.497 56.0276 784.081 53.997 780.119 52.9244C776.29 51.8331 772.374 51.5678 768.37 52.1285C762.898 52.8949 758.357 54.955 754.747 58.3087C751.137 61.6624 748.544 65.9587 746.969 71.1974C745.528 76.4175 745.257 82.2195 746.158 88.6035C746.983 94.4555 748.992 99.5314 752.184 103.831C755.51 108.112 759.696 111.256 764.742 113.262C769.922 115.249 775.582 115.812 781.721 114.952C789.195 113.906 795.653 111.442 801.094 107.56C802.76 106.394 804.324 105.231 805.784 104.069C809.368 101.219 815.37 103.111 816.008 107.637L817.509 118.281C815.788 120.557 813.276 123.011 809.973 125.643C806.651 128.143 802.748 130.385 798.264 132.369C793.933 134.468 789.164 135.882 783.959 136.611Z" fill="white"/>
<path d="M845.541 134.978C839.678 134.978 834.925 130.242 834.925 124.399V33.4423H858.78V134.978H845.541ZM858.78 77.3606V52.7825C862.419 46.6044 866.664 41.5007 871.516 37.4715C876.503 33.4423 882.029 31.4277 888.094 31.4277C891.868 31.4277 895.17 32.0993 898 33.4423V55.5653C898 57.6211 895.724 58.9204 893.809 58.1541C893.124 57.8798 892.432 57.6338 891.733 57.4161C889.576 56.7445 887.218 56.4088 884.657 56.4088C878.592 56.4088 873.538 58.4234 869.495 62.4526C865.586 66.4818 862.015 71.4511 858.78 77.3606Z" fill="white"/>
</svg>
